<?xml version="1.0" encoding="UTF-8" standalone="no"?>
<svg   version="1.1" width="36" height="36"  viewBox="12,12,36,36"  xmlns="http://www.w3.org/2000/svg" xmlns:xlink="http://www.w3.org/1999/xlink" xmlns:sketch="http://www.bohemiancoding.com/sketch/ns">
    <!-- Generator: Sketch Beta 3.2.1 (9971) - http://www.bohemiancoding.com/sketch -->
    <title>QQ</title>
    <desc>Created with Sketch Beta.</desc>
    <defs></defs>
    <g id="social" sketch:type="MSLayerGroup" fill="#FFFFFF">
        <g id="qq" >
            <path d="M16.8440367,12.015 C16.4541284,9.84 14.8321101,8.415 14.8321101,8.415 C15.066055,6.435 14.2082569,6.09 14.2082569,6.09 C14.0366972,-0.015 8.60917431,0.09 8.48440367,0.09 C8.37522936,0.09 2.94770642,-0.015 2.76055046,6.09 C2.76055046,6.09 1.90275229,6.435 2.13669725,8.415 C2.13669725,8.415 0.514678899,9.84 0.124770642,12.015 C0.124770642,12.015 -0.0779816514,15.69 1.98073394,12.465 C1.98073394,12.465 2.44862385,13.695 3.29082569,14.79 C3.29082569,14.79 1.76238532,15.285 1.90275229,16.59 C1.90275229,16.59 1.8559633,18.045 5.14678899,17.94 C5.14678899,17.94 7.4706422,17.76 8.15688073,16.815 L8.45321101,16.815 L8.74954128,16.815 C9.45137615,17.76 11.759633,17.94 11.759633,17.94 C15.066055,18.045 15.0036697,16.59 15.0036697,16.59 C15.1284404,15.285 13.6155963,14.79 13.6155963,14.79 C14.4733945,13.695 14.9256881,12.465 14.9256881,12.465 C17.046789,15.69 16.8440367,12.015 16.8440367,12.015 L16.8440367,12.015 L16.8440367,12.015 Z"></path>
        </g>
    </g>
</svg>